ffmpeg started on 2025-06-19 at 10:45:06
Report written to "D:\Convert\FFMetrics\reports\psnr_report-6.txt"
Log level: 32
Command line:
ffmpeg -hide_banner -nostdin -i "G:\\\xc0\xed\xe8\xec\xe5\\[\xd2\xee\xef-4]\\RErideD - \xc4\xe5\xf0\xf0\xe8\xe4\xe0, \xef\xee\xea\xee\xf0\xe8\xe2\xf8\xe8\xe9 \xe2\xf0\xe5\xec\xff\\RErideD_Koku_Koe_no_Derrida_[09]_[AniLibria_TV]_[WEBRip_720p]_HEVC.mkv" -i "G:\\\xc0\xed\xe8\xec\xe5\\[\xd2\xee\xef-4]\\RErideD - \xc4\xe5\xf0\xf0\xe8\xe4\xe0, \xef\xee\xea\xee\xf0\xe8\xe2\xf8\xe8\xe9 \xe2\xf0\xe5\xec\xff\\RErideD_Koku_Koe_no_Derrida_[09]_[AniLibria_TV]_[WEBRip_720p].mkv" -lavfi "[0:v]settb=AVTB,setpts=PTS-STARTPTS,format=pix_fmts=yuv420p10,fps=24000/1001,scale=1280:720:flags=bicubic[main];[1:v]settb=AVTB,setpts=PTS-STARTPTS,format=pix_fmts=yuv420p,fps=24000/1001,scale=1280:720:flags=bicubic[ref];[main][ref]psnr=eof_action=endall:stats_file='D\\:/Convert/FFMetrics/logs/psnr_logfile-6.txt'" -f null -
Input #0, matroska,webm, from 'G:\Аниме\[Топ-4]\RErideD - Деррида, покоривший время\RErideD_Koku_Koe_no_Derrida_[09]_[AniLibria_TV]_[WEBRip_720p]_HEVC.mkv':
  Metadata:
    ENCODER         : Lavf61.7.100
  Duration: 00:23:40.09, start: -0.021000, bitrate: 650 kb/s
  Stream #0:0(jpn): Video: hevc (Main 10), yuv420p10le(tv, bt709, progressive), 1280x720 [SAR 1:1 DAR 16:9], 23.98 fps, 23.98 tbr, 1k tbn (default)
      Metadata:
        ENCODER         : Lavc61.19.100 libx265
        BPS             : 453035
        DURATION        : 00:23:40.002708333
        NUMBER_OF_FRAMES: 34046
        NUMBER_OF_BYTES : 80413892
        _STATISTICS_WRITING_APP: mkvpropedit v66.0.0 ('Josie') 64-bit
        _STATISTICS_WRITING_DATE_UTC: 2025-06-17 16:03:47
        _STATISTICS_TAGS: BPS DURATION NUMBER_OF_FRAMES NUMBER_OF_BYTES
  Stream #0:1(rus): Audio: aac (LC), 48000 Hz, stereo, fltp (default) (forced)
      Metadata:
        title           : AniLibria.TV
        ENCODER         : Lavc61.19.100 aac
        BPS             : 193768
        DURATION        : 00:23:40.031000000
        NUMBER_OF_FRAMES: 66565
        NUMBER_OF_BYTES : 34394665
        _STATISTICS_WRITING_APP: mkvpropedit v66.0.0 ('Josie') 64-bit
        _STATISTICS_WRITING_DATE_UTC: 2025-06-17 16:03:47
        _STATISTICS_TAGS: BPS DURATION NUMBER_OF_FRAMES NUMBER_OF_BYTES
  Stream #0:2(rus): Subtitle: ass (ssa) (default) (forced)
      Metadata:
        title           : Надписи
        BPS             : 7
        DURATION        : 00:21:30.940000000
        NUMBER_OF_FRAMES: 11
        NUMBER_OF_BYTES : 1239
        _STATISTICS_WRITING_APP: mkvpropedit v66.0.0 ('Josie') 64-bit
        _STATISTICS_WRITING_DATE_UTC: 2025-06-17 16:03:47
        _STATISTICS_TAGS: BPS DURATION NUMBER_OF_FRAMES NUMBER_OF_BYTES
  Stream #0:3(rus): Subtitle: ass (ssa)
      Metadata:
        title           : Полные субтитры
        BPS             : 93
        DURATION        : 00:22:06.140000000
        NUMBER_OF_FRAMES: 240
        NUMBER_OF_BYTES : 15577
        _STATISTICS_WRITING_APP: mkvpropedit v66.0.0 ('Josie') 64-bit
        _STATISTICS_WRITING_DATE_UTC: 2025-06-17 16:03:47
        _STATISTICS_TAGS: BPS DURATION NUMBER_OF_FRAMES NUMBER_OF_BYTES
Input #1, matroska,webm, from 'G:\Аниме\[Топ-4]\RErideD - Деррида, покоривший время\RErideD_Koku_Koe_no_Derrida_[09]_[AniLibria_TV]_[WEBRip_720p].mkv':
  Metadata:
    encoder         : libebml v1.4.2 + libmatroska v1.6.4
    creation_time   : 2024-12-15T11:01:46.000000Z
  Duration: 00:23:40.09, start: 0.000000, bitrate: 1938 kb/s
  Stream #1:0(jpn): Video: h264 (High), yuv420p(progressive), 1280x720 [SAR 1:1 DAR 16:9], 23.98 fps, 23.98 tbr, 1k tbn (default)
      Metadata:
        BPS             : 1737731
        DURATION        : 00:23:40.004000000
        NUMBER_OF_FRAMES: 34046
        NUMBER_OF_BYTES : 308448196
        _STATISTICS_WRITING_APP: mkvmerge v66.0.0 ('Josie') 64-bit
        _STATISTICS_WRITING_DATE_UTC: 2024-12-15 11:01:46
        _STATISTICS_TAGS: BPS DURATION NUMBER_OF_FRAMES NUMBER_OF_BYTES
  Stream #1:1(rus): Audio: aac (LC), 48000 Hz, stereo, fltp (default) (forced)
      Metadata:
        title           : AniLibria.TV
        BPS             : 195425
        DURATION        : 00:23:40.031000000
        NUMBER_OF_FRAMES: 66564
        NUMBER_OF_BYTES : 34688831
        _STATISTICS_WRITING_APP: mkvmerge v66.0.0 ('Josie') 64-bit
        _STATISTICS_WRITING_DATE_UTC: 2024-12-15 11:01:46
        _STATISTICS_TAGS: BPS DURATION NUMBER_OF_FRAMES NUMBER_OF_BYTES
  Stream #1:2(rus): Subtitle: ass (ssa) (default) (forced)
      Metadata:
        title           : Надписи
        BPS             : 7
        DURATION        : 00:21:30.940000000
        NUMBER_OF_FRAMES: 11
        NUMBER_OF_BYTES : 1239
        _STATISTICS_WRITING_APP: mkvmerge v66.0.0 ('Josie') 64-bit
        _STATISTICS_WRITING_DATE_UTC: 2024-12-15 11:01:46
        _STATISTICS_TAGS: BPS DURATION NUMBER_OF_FRAMES NUMBER_OF_BYTES
  Stream #1:3(rus): Subtitle: ass (ssa)
      Metadata:
        title           : Полные субтитры
        BPS             : 93
        DURATION        : 00:22:06.140000000
        NUMBER_OF_FRAMES: 240
        NUMBER_OF_BYTES : 15577
        _STATISTICS_WRITING_APP: mkvmerge v66.0.0 ('Josie') 64-bit
        _STATISTICS_WRITING_DATE_UTC: 2024-12-15 11:01:46
        _STATISTICS_TAGS: BPS DURATION NUMBER_OF_FRAMES NUMBER_OF_BYTES
  Stream #1:4: Attachment: ttf
      Metadata:
        filename        : OpenSans-Semibold.ttf
        mimetype        : application/x-truetype-font
  Stream #1:5: Attachment: ttf
      Metadata:
        filename        : v_MightyZeo2.0_v1.07.ttf
        mimetype        : application/x-truetype-font
  Stream #1:6: Attachment: ttf
      Metadata:
        filename        : OpenSans-Semibold.ttf
        mimetype        : application/x-truetype-font
Stream mapping:
  Stream #0:0 (hevc) -> settb:default
  Stream #1:0 (h264) -> settb:default
  psnr:default -> Stream #0:0 (wrapped_avframe)
  Stream #0:1 -> #0:1 (aac (native) -> pcm_s16le (native))
[swscaler @ 0000027e3eb0fa00] No accelerated colorspace conversion found from yuv420p to bgr48le.
[swscaler @ 0000027e3ec4c9c0] No accelerated colorspace conversion found from yuv420p to bgr48le.
[swscaler @ 0000027e3edc5900] No accelerated colorspace conversion found from yuv420p to bgr48le.
[swscaler @ 0000027e3ef7acc0] No accelerated colorspace conversion found from yuv420p to bgr48le.
[swscaler @ 0000027e3efc0480] No accelerated colorspace conversion found from yuv420p to bgr48le.
[swscaler @ 0000027e3f0ae080] No accelerated colorspace conversion found from yuv420p to bgr48le.
[swscaler @ 0000027e3f11a740] No accelerated colorspace conversion found from yuv420p to bgr48le.
[swscaler @ 0000027e3f179040] No accelerated colorspace conversion found from yuv420p to bgr48le.
[swscaler @ 0000027e3f1db040] No accelerated colorspace conversion found from yuv420p to bgr48le.
[swscaler @ 0000027e3f26abc0] No accelerated colorspace conversion found from yuv420p to bgr48le.
[swscaler @ 0000027e3f2cc040] No accelerated colorspace conversion found from yuv420p to bgr48le.
[swscaler @ 0000027e3f33b840] No accelerated colorspace conversion found from yuv420p to bgr48le.
[swscaler @ 0000027e3f398040] No accelerated colorspace conversion found from yuv420p to bgr48le.
[swscaler @ 0000027e3f41b040] No accelerated colorspace conversion found from yuv420p to bgr48le.
[swscaler @ 0000027e3f43d000] No accelerated colorspace conversion found from yuv420p to bgr48le.
[swscaler @ 0000027e3f469000] No accelerated colorspace conversion found from yuv420p to bgr48le.
Output #0, null, to 'pipe:':
  Metadata:
    encoder         : Lavf61.7.100
  Stream #0:0: Video: wrapped_avframe, yuv420p10le(tv, bt709, progressive), 1280x720 [SAR 1:1 DAR 16:9], q=2-31, 200 kb/s, 23.98 fps, 23.98 tbn
      Metadata:
        encoder         : Lavc61.19.100 wrapped_avframe
  Stream #0:1(rus): Audio: pcm_s16le, 48000 Hz, stereo, s16, 1536 kb/s (default) (forced)
      Metadata:
        title           : AniLibria.TV
        _STATISTICS_TAGS: BPS DURATION NUMBER_OF_FRAMES NUMBER_OF_BYTES
        BPS             : 193768
        DURATION        : 00:23:40.031000000
        NUMBER_OF_FRAMES: 66565
        NUMBER_OF_BYTES : 34394665
        _STATISTICS_WRITING_APP: mkvpropedit v66.0.0 ('Josie') 64-bit
        _STATISTICS_WRITING_DATE_UTC: 2025-06-17 16:03:47
        encoder         : Lavc61.19.100 pcm_s16le
frame=   79 fps=0.0 q=-0.0 size=N/A time=00:00:03.29 bitrate=N/A speed=6.47x    frame=  169 fps=166 q=-0.0 size=N/A time=00:00:07.04 bitrate=N/A speed=6.91x    frame=  282 fps=182 q=-0.0 size=N/A time=00:00:11.76 bitrate=N/A speed=7.61x    frame=  374 fps=182 q=-0.0 size=N/A time=00:00:15.59 bitrate=N/A speed=7.59x    frame=  482 fps=188 q=-0.0 size=N/A time=00:00:20.10 bitrate=N/A speed=7.83x    frame=  583 fps=189 q=-0.0 size=N/A time=00:00:24.31 bitrate=N/A speed=7.86x    frame=  672 fps=187 q=-0.0 size=N/A time=00:00:28.02 bitrate=N/A speed=7.78x    frame=  772 fps=187 q=-0.0 size=N/A time=00:00:32.19 bitrate=N/A speed=7.81x    frame=  861 fps=186 q=-0.0 size=N/A time=00:00:35.91 bitrate=N/A speed=7.75x    frame=  952 fps=185 q=-0.0 size=N/A time=00:00:39.70 bitrate=N/A speed=7.72x    frame= 1043 fps=184 q=-0.0 size=N/A time=00:00:43.50 bitrate=N/A speed=7.67x    frame= 1134 fps=183 q=-0.0 size=N/A time=00:00:47.29 bitrate=N/A speed=7.65x    frame= 1230 fps=184 q=-0.0 size=N/A time=00:00:51.30 bitrate=N/A speed=7.67x    frame= 1320 fps=183 q=-0.0 size=N/A time=00:00:55.05 bitrate=N/A speed=7.63x    frame= 1416 fps=183 q=-0.0 size=N/A time=00:00:59.05 bitrate=N/A speed=7.65x    frame= 1514 fps=184 q=-0.0 size=N/A time=00:01:03.14 bitrate=N/A speed=7.66x    frame= 1607 fps=183 q=-0.0 size=N/A time=00:01:07.02 bitrate=N/A speed=7.65x    frame= 1703 fps=183 q=-0.0 size=N/A time=00:01:11.02 bitrate=N/A speed=7.65x    frame= 1806 fps=184 q=-0.0 size=N/A time=00:01:15.32 bitrate=N/A speed=7.68x    frame= 1897 fps=184 q=-0.0 size=N/A time=00:01:19.12 bitrate=N/A speed=7.67x    frame= 1995 fps=184 q=-0.0 size=N/A time=00:01:23.20 bitrate=N/A speed=7.67x    frame= 2088 fps=184 q=-0.0 size=N/A time=00:01:27.08 bitrate=N/A speed=7.67x    frame= 2181 fps=184 q=-0.0 size=N/A time=00:01:30.96 bitrate=N/A speed=7.67x    frame= 2282 fps=184 q=-0.0 size=N/A time=00:01:35.17 bitrate=N/A speed=7.68x    frame= 2376 fps=184 q=-0.0 size=N/A time=00:01:39.09 bitrate=N/A speed=7.68x    frame= 2471 fps=184 q=-0.0 size=N/A time=00:01:43.06 bitrate=N/A speed=7.69x    frame= 2573 fps=185 q=-0.0 size=N/A time=00:01:47.31 bitrate=N/A speed= 7.7x    frame= 2664 fps=184 q=-0.0 size=N/A time=00:01:51.11 bitrate=N/A speed=7.69x    frame= 2760 fps=184 q=-0.0 size=N/A time=00:01:55.11 bitrate=N/A speed=7.69x    frame= 2853 fps=184 q=-0.0 size=N/A time=00:01:58.99 bitrate=N/A speed=7.69x    frame= 2952 fps=184 q=-0.0 size=N/A time=00:02:03.12 bitrate=N/A speed=7.69x    frame= 3049 fps=185 q=-0.0 size=N/A time=00:02:07.16 bitrate=N/A speed= 7.7x    frame= 3148 fps=185 q=-0.0 size=N/A time=00:02:11.29 bitrate=N/A speed=7.71x    frame= 3247 fps=185 q=-0.0 size=N/A time=00:02:15.42 bitrate=N/A speed=7.72x    frame= 3345 fps=185 q=-0.0 size=N/A time=00:02:19.51 bitrate=N/A speed=7.73x    frame= 3439 fps=185 q=-0.0 size=N/A time=00:02:23.43 bitrate=N/A speed=7.72x    frame= 3545 fps=186 q=-0.0 size=N/A time=00:02:27.85 bitrate=N/A speed=7.75x    frame= 3643 fps=186 q=-0.0 size=N/A time=00:02:31.94 bitrate=N/A speed=7.75x    frame= 3741 fps=186 q=-0.0 size=N/A time=00:02:36.03 bitrate=N/A speed=7.75x    frame= 3842 fps=186 q=-0.0 size=N/A time=00:02:40.24 bitrate=N/A speed=7.77x    frame= 3942 fps=186 q=-0.0 size=N/A time=00:02:44.41 bitrate=N/A speed=7.77x    frame= 4026 fps=186 q=-0.0 size=N/A time=00:02:47.91 bitrate=N/A speed=7.75x    frame= 4131 fps=186 q=-0.0 size=N/A time=00:02:52.29 bitrate=N/A speed=7.77x    frame= 4223 fps=186 q=-0.0 size=N/A time=00:02:56.13 bitrate=N/A speed=7.76x    frame= 4305 fps=185 q=-0.0 size=N/A time=00:02:59.55 bitrate=N/A speed=7.73x    frame= 4400 fps=185 q=-0.0 size=N/A time=00:03:03.51 bitrate=N/A speed=7.74x    frame= 4498 fps=185 q=-0.0 size=N/A time=00:03:07.60 bitrate=N/A speed=7.74x    frame= 4580 fps=185 q=-0.0 size=N/A time=00:03:11.02 bitrate=N/A speed=7.71x    frame= 4681 fps=185 q=-0.0 size=N/A time=00:03:15.23 bitrate=N/A speed=7.72x    frame= 4775 fps=185 q=-0.0 size=N/A time=00:03:19.15 bitrate=N/A speed=7.72x    frame= 4855 fps=185 q=-0.0 size=N/A time=00:03:22.49 bitrate=N/A speed= 7.7x    frame= 4960 fps=185 q=-0.0 size=N/A time=00:03:26.87 bitrate=N/A speed=7.71x    frame= 5041 fps=184 q=-0.0 size=N/A time=00:03:30.25 bitrate=N/A speed=7.69x    frame= 5143 fps=185 q=-0.0 size=N/A time=00:03:34.50 bitrate=N/A speed= 7.7x    frame= 5236 fps=185 q=-0.0 size=N/A time=00:03:38.38 bitrate=N/A speed= 7.7x    frame= 5327 fps=184 q=-0.0 size=N/A time=00:03:42.18 bitrate=N/A speed=7.69x    frame= 5424 fps=184 q=-0.0 size=N/A time=00:03:46.22 bitrate=N/A speed=7.69x    frame= 5516 fps=184 q=-0.0 size=N/A time=00:03:50.06 bitrate=N/A speed=7.69x    frame= 5614 fps=184 q=-0.0 size=N/A time=00:03:54.15 bitrate=N/A speed=7.69x    frame= 5710 fps=184 q=-0.0 size=N/A time=00:03:58.15 bitrate=N/A speed=7.69x    frame= 5799 fps=184 q=-0.0 size=N/A time=00:04:01.86 bitrate=N/A speed=7.69x    frame= 5900 fps=185 q=-0.0 size=N/A time=00:04:06.07 bitrate=N/A speed= 7.7x    frame= 6004 fps=185 q=-0.0 size=N/A time=00:04:10.41 bitrate=N/A speed=7.71x    frame= 6099 fps=185 q=-0.0 size=N/A time=00:04:14.37 bitrate=N/A speed=7.71x    frame= 6193 fps=185 q=-0.0 size=N/A time=00:04:18.29 bitrate=N/A speed= 7.7x    frame= 6294 fps=185 q=-0.0 size=N/A time=00:04:22.51 bitrate=N/A speed=7.71x    frame= 6389 fps=185 q=-0.0 size=N/A time=00:04:26.47 bitrate=N/A speed=7.71x    frame= 6493 fps=185 q=-0.0 size=N/A time=00:04:30.81 bitrate=N/A speed=7.72x    frame= 6577 fps=185 q=-0.0 size=N/A time=00:04:34.31 bitrate=N/A speed=7.71x    frame= 6686 fps=185 q=-0.0 size=N/A time=00:04:38.86 bitrate=N/A speed=7.72x    frame= 6782 fps=185 q=-0.0 size=N/A time=00:04:42.86 bitrate=N/A speed=7.73x    frame= 6883 fps=185 q=-0.0 size=N/A time=00:04:47.07 bitrate=N/A speed=7.73x    frame= 6983 fps=185 q=-0.0 size=N/A time=00:04:51.24 bitrate=N/A speed=7.73x    frame= 7074 fps=185 q=-0.0 size=N/A time=00:04:55.04 bitrate=N/A speed=7.73x    frame= 7175 fps=185 q=-0.0 size=N/A time=00:04:59.25 bitrate=N/A speed=7.74x    frame= 7280 fps=186 q=-0.0 size=N/A time=00:05:03.63 bitrate=N/A speed=7.75x    frame= 7381 fps=186 q=-0.0 size=N/A time=00:05:07.84 bitrate=N/A speed=7.75x    frame= 7466 fps=186 q=-0.0 size=N/A time=00:05:11.39 bitrate=N/A speed=7.74x    frame= 7571 fps=186 q=-0.0 size=N/A time=00:05:15.77 bitrate=N/A speed=7.75x    frame= 7673 fps=186 q=-0.0 size=N/A time=00:05:20.02 bitrate=N/A speed=7.76x    frame= 7768 fps=186 q=-0.0 size=N/A time=00:05:23.99 bitrate=N/A speed=7.76x    frame= 7876 fps=186 q=-0.0 size=N/A time=00:05:28.49 bitrate=N/A speed=7.77x    frame= 7977 fps=186 q=-0.0 size=N/A time=00:05:32.70 bitrate=N/A speed=7.77x    frame= 8064 fps=186 q=-0.0 size=N/A time=00:05:36.33 bitrate=N/A speed=7.76x    frame= 8171 fps=186 q=-0.0 size=N/A time=00:05:40.79 bitrate=N/A speed=7.78x    frame= 8270 fps=186 q=-0.0 size=N/A time=00:05:44.92 bitrate=N/A speed=7.78x    frame= 8361 fps=186 q=-0.0 size=N/A time=00:05:48.72 bitrate=N/A speed=7.77x    frame= 8470 fps=187 q=-0.0 size=N/A time=00:05:53.26 bitrate=N/A speed=7.78x    frame= 8566 fps=187 q=-0.0 size=N/A time=00:05:57.27 bitrate=N/A speed=7.78x    frame= 8668 fps=187 q=-0.0 size=N/A time=00:06:01.52 bitrate=N/A speed=7.79x    frame= 8761 fps=187 q=-0.0 size=N/A time=00:06:05.40 bitrate=N/A speed=7.78x    frame= 8869 fps=187 q=-0.0 size=N/A time=00:06:09.91 bitrate=N/A speed= 7.8x    frame= 8969 fps=187 q=-0.0 size=N/A time=00:06:14.08 bitrate=N/A speed= 7.8x    frame= 9071 fps=187 q=-0.0 size=N/A time=00:06:18.33 bitrate=N/A speed= 7.8x    frame= 9159 fps=187 q=-0.0 size=N/A time=00:06:22.00 bitrate=N/A speed= 7.8x    frame= 9256 fps=187 q=-0.0 size=N/A time=00:06:26.05 bitrate=N/A speed= 7.8x    frame= 9355 fps=187 q=-0.0 size=N/A time=00:06:30.18 bitrate=N/A speed= 7.8x    frame= 9464 fps=187 q=-0.0 size=N/A time=00:06:34.72 bitrate=N/A speed=7.81x    frame= 9562 fps=187 q=-0.0 size=N/A time=00:06:38.81 bitrate=N/A speed=7.81x    frame= 9660 fps=187 q=-0.0 size=N/A time=00:06:42.90 bitrate=N/A speed=7.81x    frame= 9759 fps=187 q=-0.0 size=N/A time=00:06:47.03 bitrate=N/A speed=7.81x    frame= 9863 fps=187 q=-0.0 size=N/A time=00:06:51.36 bitrate=N/A speed=7.82x    frame= 9962 fps=188 q=-0.0 size=N/A time=00:06:55.49 bitrate=N/A speed=7.82x    frame=10047 fps=187 q=-0.0 size=N/A time=00:06:59.04 bitrate=N/A speed=7.81x    frame=10159 fps=188 q=-0.0 size=N/A time=00:07:03.71 bitrate=N/A speed=7.83x    frame=10258 fps=188 q=-0.0 size=N/A time=00:07:07.84 bitrate=N/A speed=7.83x    frame=10359 fps=188 q=-0.0 size=N/A time=00:07:12.05 bitrate=N/A speed=7.83x    frame=10461 fps=188 q=-0.0 size=N/A time=00:07:16.31 bitrate=N/A speed=7.83x    frame=10554 fps=188 q=-0.0 size=N/A time=00:07:20.18 bitrate=N/A speed=7.83x    frame=10643 fps=188 q=-0.0 size=N/A time=00:07:23.90 bitrate=N/A speed=7.83x    frame=10756 fps=188 q=-0.0 size=N/A time=00:07:28.61 bitrate=N/A speed=7.84x    frame=10850 fps=188 q=-0.0 size=N/A time=00:07:32.53 bitrate=N/A speed=7.83x    frame=10942 fps=188 q=-0.0 size=N/A time=00:07:36.37 bitrate=N/A speed=7.83x    frame=11046 fps=188 q=-0.0 size=N/A time=00:07:40.71 bitrate=N/A speed=7.84x    frame=11143 fps=188 q=-0.0 size=N/A time=00:07:44.75 bitrate=N/A speed=7.84x    frame=11251 fps=188 q=-0.0 size=N/A time=00:07:49.26 bitrate=N/A speed=7.84x    frame=11351 fps=188 q=-0.0 size=N/A time=00:07:53.43 bitrate=N/A speed=7.85x    frame=11437 fps=188 q=-0.0 size=N/A time=00:07:57.01 bitrate=N/A speed=7.84x    frame=11546 fps=188 q=-0.0 size=N/A time=00:08:01.56 bitrate=N/A speed=7.85x    frame=11638 fps=188 q=-0.0 size=N/A time=00:08:05.40 bitrate=N/A speed=7.84x    frame=11746 fps=188 q=-0.0 size=N/A time=00:08:09.90 bitrate=N/A speed=7.85x    frame=11842 fps=188 q=-0.0 size=N/A time=00:08:13.91 bitrate=N/A speed=7.85x    frame=11943 fps=188 q=-0.0 size=N/A time=00:08:18.12 bitrate=N/A speed=7.85x    frame=12041 fps=188 q=-0.0 size=N/A time=00:08:22.21 bitrate=N/A speed=7.85x    frame=12134 fps=188 q=-0.0 size=N/A time=00:08:26.08 bitrate=N/A speed=7.85x    frame=12241 fps=188 q=-0.0 size=N/A time=00:08:30.55 bitrate=N/A speed=7.86x    frame=12344 fps=188 q=-0.0 size=N/A time=00:08:34.84 bitrate=N/A speed=7.86x    frame=12443 fps=189 q=-0.0 size=N/A time=00:08:38.97 bitrate=N/A speed=7.86x    frame=12539 fps=188 q=-0.0 size=N/A time=00:08:42.98 bitrate=N/A speed=7.86x    frame=12642 fps=189 q=-0.0 size=N/A time=00:08:47.27 bitrate=N/A speed=7.87x    frame=12735 fps=189 q=-0.0 size=N/A time=00:08:51.15 bitrate=N/A speed=7.86x    frame=12845 fps=189 q=-0.0 size=N/A time=00:08:55.74 bitrate=N/A speed=7.87x    frame=12941 fps=189 q=-0.0 size=N/A time=00:08:59.74 bitrate=N/A speed=7.87x    frame=13042 fps=189 q=-0.0 size=N/A time=00:09:03.96 bitrate=N/A speed=7.87x    frame=13131 fps=189 q=-0.0 size=N/A time=00:09:07.67 bitrate=N/A speed=7.87x    frame=13239 fps=189 q=-0.0 size=N/A time=00:09:12.17 bitrate=N/A speed=7.87x    frame=13337 fps=189 q=-0.0 size=N/A time=00:09:16.26 bitrate=N/A speed=7.87x    frame=13428 fps=189 q=-0.0 size=N/A time=00:09:20.05 bitrate=N/A speed=7.87x    frame=13532 fps=189 q=-0.0 size=N/A time=00:09:24.39 bitrate=N/A speed=7.87x    frame=13623 fps=189 q=-0.0 size=N/A time=00:09:28.19 bitrate=N/A speed=7.87x    frame=13728 fps=189 q=-0.0 size=N/A time=00:09:32.57 bitrate=N/A speed=7.88x    frame=13822 fps=189 q=-0.0 size=N/A time=00:09:36.49 bitrate=N/A speed=7.87x    frame=13926 fps=189 q=-0.0 size=N/A time=00:09:40.83 bitrate=N/A speed=7.88x    frame=14025 fps=189 q=-0.0 size=N/A time=00:09:44.95 bitrate=N/A speed=7.88x    frame=14126 fps=189 q=-0.0 size=N/A time=00:09:49.17 bitrate=N/A speed=7.88x    frame=14228 fps=189 q=-0.0 size=N/A time=00:09:53.42 bitrate=N/A speed=7.88x    frame=14327 fps=189 q=-0.0 size=N/A time=00:09:57.55 bitrate=N/A speed=7.88x    frame=14427 fps=189 q=-0.0 size=N/A time=00:10:01.72 bitrate=N/A speed=7.88x    frame=14526 fps=189 q=-0.0 size=N/A time=00:10:05.85 bitrate=N/A speed=7.88x    frame=14623 fps=189 q=-0.0 size=N/A time=00:10:09.90 bitrate=N/A speed=7.88x    frame=14723 fps=189 q=-0.0 size=N/A time=00:10:14.07 bitrate=N/A speed=7.89x    frame=14817 fps=189 q=-0.0 size=N/A time=00:10:17.99 bitrate=N/A speed=7.88x    frame=14913 fps=189 q=-0.0 size=N/A time=00:10:21.99 bitrate=N/A speed=7.88x    frame=15024 fps=189 q=-0.0 size=N/A time=00:10:26.62 bitrate=N/A speed=7.89x    frame=15116 fps=189 q=-0.0 size=N/A time=00:10:30.46 bitrate=N/A speed=7.89x    frame=15211 fps=189 q=-0.0 size=N/A time=00:10:34.42 bitrate=N/A speed=7.89x    frame=15317 fps=189 q=-0.0 size=N/A time=00:10:38.84 bitrate=N/A speed=7.89x    frame=15416 fps=189 q=-0.0 size=N/A time=00:10:42.97 bitrate=N/A speed=7.89x    frame=15522 fps=189 q=-0.0 size=N/A time=00:10:47.39 bitrate=N/A speed=7.89x    frame=15624 fps=189 q=-0.0 size=N/A time=00:10:51.65 bitrate=N/A speed= 7.9x    frame=15718 fps=189 q=-0.0 size=N/A time=00:10:55.57 bitrate=N/A speed=7.89x    frame=15816 fps=189 q=-0.0 size=N/A time=00:10:59.65 bitrate=N/A speed= 7.9x    frame=15908 fps=189 q=-0.0 size=N/A time=00:11:03.49 bitrate=N/A speed=7.89x    frame=16011 fps=189 q=-0.0 size=N/A time=00:11:07.79 bitrate=N/A speed= 7.9x    frame=16101 fps=189 q=-0.0 size=N/A time=00:11:11.54 bitrate=N/A speed=7.89x    frame=16214 fps=189 q=-0.0 size=N/A time=00:11:16.25 bitrate=N/A speed= 7.9x    frame=16314 fps=189 q=-0.0 size=N/A time=00:11:20.42 bitrate=N/A speed= 7.9x    frame=16413 fps=189 q=-0.0 size=N/A time=00:11:24.55 bitrate=N/A speed= 7.9x    frame=16509 fps=189 q=-0.0 size=N/A time=00:11:28.56 bitrate=N/A speed= 7.9x    frame=16607 fps=189 q=-0.0 size=N/A time=00:11:32.65 bitrate=N/A speed= 7.9x    frame=16703 fps=189 q=-0.0 size=N/A time=00:11:36.65 bitrate=N/A speed= 7.9x    frame=16799 fps=189 q=-0.0 size=N/A time=00:11:40.65 bitrate=N/A speed= 7.9x    frame=16897 fps=189 q=-0.0 size=N/A time=00:11:44.74 bitrate=N/A speed= 7.9x    frame=16996 fps=189 q=-0.0 size=N/A time=00:11:48.87 bitrate=N/A speed= 7.9x    frame=17099 fps=189 q=-0.0 size=N/A time=00:11:53.17 bitrate=N/A speed= 7.9x    frame=17191 fps=189 q=-0.0 size=N/A time=00:11:57.00 bitrate=N/A speed= 7.9x    frame=17290 fps=189 q=-0.0 size=N/A time=00:12:01.13 bitrate=N/A speed= 7.9x    frame=17389 fps=189 q=-0.0 size=N/A time=00:12:05.26 bitrate=N/A speed= 7.9x    frame=17495 fps=189 q=-0.0 size=N/A time=00:12:09.68 bitrate=N/A speed= 7.9x    frame=17596 fps=190 q=-0.0 size=N/A time=00:12:13.89 bitrate=N/A speed= 7.9x    frame=17697 fps=190 q=-0.0 size=N/A time=00:12:18.11 bitrate=N/A speed=7.91x    frame=17798 fps=190 q=-0.0 size=N/A time=00:12:22.32 bitrate=N/A speed=7.91x    frame=17885 fps=189 q=-0.0 size=N/A time=00:12:25.95 bitrate=N/A speed= 7.9x    frame=17998 fps=190 q=-0.0 size=N/A time=00:12:30.66 bitrate=N/A speed=7.91x    frame=18098 fps=190 q=-0.0 size=N/A time=00:12:34.83 bitrate=N/A speed=7.91x    frame=18190 fps=190 q=-0.0 size=N/A time=00:12:38.67 bitrate=N/A speed=7.91x    frame=18294 fps=190 q=-0.0 size=N/A time=00:12:43.01 bitrate=N/A speed=7.91x    frame=18391 fps=190 q=-0.0 size=N/A time=00:12:47.05 bitrate=N/A speed=7.91x    frame=18489 fps=190 q=-0.0 size=N/A time=00:12:51.14 bitrate=N/A speed=7.91x    frame=18578 fps=190 q=-0.0 size=N/A time=00:12:54.85 bitrate=N/A speed=7.91x    frame=18693 fps=190 q=-0.0 size=N/A time=00:12:59.65 bitrate=N/A speed=7.91x    frame=18791 fps=190 q=-0.0 size=N/A time=00:13:03.74 bitrate=N/A speed=7.91x    frame=18894 fps=190 q=-0.0 size=N/A time=00:13:08.03 bitrate=N/A speed=7.92x    frame=18982 fps=190 q=-0.0 size=N/A time=00:13:11.70 bitrate=N/A speed=7.91x    frame=19077 fps=190 q=-0.0 size=N/A time=00:13:15.66 bitrate=N/A speed=7.91x    frame=19174 fps=190 q=-0.0 size=N/A time=00:13:19.71 bitrate=N/A speed=7.91x    frame=19279 fps=190 q=-0.0 size=N/A time=00:13:24.09 bitrate=N/A speed=7.91x    frame=19386 fps=190 q=-0.0 size=N/A time=00:13:28.55 bitrate=N/A speed=7.92x    frame=19486 fps=190 q=-0.0 size=N/A time=00:13:32.72 bitrate=N/A speed=7.92x    frame=19586 fps=190 q=-0.0 size=N/A time=00:13:36.89 bitrate=N/A speed=7.92x    frame=19687 fps=190 q=-0.0 size=N/A time=00:13:41.11 bitrate=N/A speed=7.92x    frame=19775 fps=190 q=-0.0 size=N/A time=00:13:44.78 bitrate=N/A speed=7.92x    frame=19883 fps=190 q=-0.0 size=N/A time=00:13:49.28 bitrate=N/A speed=7.92x    frame=19982 fps=190 q=-0.0 size=N/A time=00:13:53.41 bitrate=N/A speed=7.92x    frame=20078 fps=190 q=-0.0 size=N/A time=00:13:57.41 bitrate=N/A speed=7.92x    frame=20177 fps=190 q=-0.0 size=N/A time=00:14:01.54 bitrate=N/A speed=7.92x    frame=20273 fps=190 q=-0.0 size=N/A time=00:14:05.55 bitrate=N/A speed=7.92x    frame=20365 fps=190 q=-0.0 size=N/A time=00:14:09.39 bitrate=N/A speed=7.92x    frame=20468 fps=190 q=-0.0 size=N/A time=00:14:13.68 bitrate=N/A speed=7.92x    frame=20564 fps=190 q=-0.0 size=N/A time=00:14:17.69 bitrate=N/A speed=7.92x    frame=20659 fps=190 q=-0.0 size=N/A time=00:14:21.65 bitrate=N/A speed=7.92x    frame=20763 fps=190 q=-0.0 size=N/A time=00:14:25.99 bitrate=N/A speed=7.92x    frame=20859 fps=190 q=-0.0 size=N/A time=00:14:29.99 bitrate=N/A speed=7.92x    frame=20952 fps=190 q=-0.0 size=N/A time=00:14:33.87 bitrate=N/A speed=7.92x    frame=21058 fps=190 q=-0.0 size=N/A time=00:14:38.29 bitrate=N/A speed=7.92x    frame=21157 fps=190 q=-0.0 size=N/A time=00:14:42.42 bitrate=N/A speed=7.92x    frame=21249 fps=190 q=-0.0 size=N/A time=00:14:46.26 bitrate=N/A speed=7.92x    frame=21352 fps=190 q=-0.0 size=N/A time=00:14:50.55 bitrate=N/A speed=7.92x    frame=21447 fps=190 q=-0.0 size=N/A time=00:14:54.51 bitrate=N/A speed=7.92x    frame=21547 fps=190 q=-0.0 size=N/A time=00:14:58.68 bitrate=N/A speed=7.92x    frame=21643 fps=190 q=-0.0 size=N/A time=00:15:02.69 bitrate=N/A speed=7.92x    frame=21737 fps=190 q=-0.0 size=N/A time=00:15:06.61 bitrate=N/A speed=7.92x    frame=21826 fps=190 q=-0.0 size=N/A time=00:15:10.32 bitrate=N/A speed=7.91x    frame=21935 fps=190 q=-0.0 size=N/A time=00:15:14.87 bitrate=N/A speed=7.92x    frame=22034 fps=190 q=-0.0 size=N/A time=00:15:19.00 bitrate=N/A speed=7.92x    frame=22130 fps=190 q=-0.0 size=N/A time=00:15:23.00 bitrate=N/A speed=7.92x    frame=22229 fps=190 q=-0.0 size=N/A time=00:15:27.13 bitrate=N/A speed=7.92x    frame=22327 fps=190 q=-0.0 size=N/A time=00:15:31.22 bitrate=N/A speed=7.92x    frame=22426 fps=190 q=-0.0 size=N/A time=00:15:35.35 bitrate=N/A speed=7.92x    frame=22515 fps=190 q=-0.0 size=N/A time=00:15:39.06 bitrate=N/A speed=7.91x    frame=22620 fps=190 q=-0.0 size=N/A time=00:15:43.44 bitrate=N/A speed=7.92x    frame=22722 fps=190 q=-0.0 size=N/A time=00:15:47.69 bitrate=N/A speed=7.92x    frame=22822 fps=190 q=-0.0 size=N/A time=00:15:51.86 bitrate=N/A speed=7.92x    frame=22913 fps=190 q=-0.0 size=N/A time=00:15:55.66 bitrate=N/A speed=7.92x    frame=23012 fps=190 q=-0.0 size=N/A time=00:15:59.79 bitrate=N/A speed=7.92x    frame=23117 fps=190 q=-0.0 size=N/A time=00:16:04.17 bitrate=N/A speed=7.92x    frame=23218 fps=190 q=-0.0 size=N/A time=00:16:08.38 bitrate=N/A speed=7.92x    frame=23302 fps=190 q=-0.0 size=N/A time=00:16:11.88 bitrate=N/A speed=7.91x    frame=23413 fps=190 q=-0.0 size=N/A time=00:16:16.51 bitrate=N/A speed=7.92x    frame=23503 fps=190 q=-0.0 size=N/A time=00:16:20.27 bitrate=N/A speed=7.92x    frame=23612 fps=190 q=-0.0 size=N/A time=00:16:24.81 bitrate=N/A speed=7.92x    frame=23712 fps=190 q=-0.0 size=N/A time=00:16:28.98 bitrate=N/A speed=7.92x    frame=23814 fps=190 q=-0.0 size=N/A time=00:16:33.24 bitrate=N/A speed=7.92x    frame=23907 fps=190 q=-0.0 size=N/A time=00:16:37.12 bitrate=N/A speed=7.92x    frame=24005 fps=190 q=-0.0 size=N/A time=00:16:41.20 bitrate=N/A speed=7.92x    frame=24105 fps=190 q=-0.0 size=N/A time=00:16:45.37 bitrate=N/A speed=7.92x    frame=24198 fps=190 q=-0.0 size=N/A time=00:16:49.25 bitrate=N/A speed=7.92x    frame=24298 fps=190 q=-0.0 size=N/A time=00:16:53.42 bitrate=N/A speed=7.92x    frame=24393 fps=190 q=-0.0 size=N/A time=00:16:57.39 bitrate=N/A speed=7.92x    frame=24492 fps=190 q=-0.0 size=N/A time=00:17:01.52 bitrate=N/A speed=7.92x    frame=24583 fps=190 q=-0.0 size=N/A time=00:17:05.31 bitrate=N/A speed=7.92x    frame=24692 fps=190 q=-0.0 size=N/A time=00:17:09.86 bitrate=N/A speed=7.92x    frame=24782 fps=190 q=-0.0 size=N/A time=00:17:13.61 bitrate=N/A speed=7.92x    frame=24890 fps=190 q=-0.0 size=N/A time=00:17:18.12 bitrate=N/A speed=7.92x    frame=24997 fps=190 q=-0.0 size=N/A time=00:17:22.58 bitrate=N/A speed=7.92x    frame=25092 fps=190 q=-0.0 size=N/A time=00:17:26.54 bitrate=N/A speed=7.92x    frame=25190 fps=190 q=-0.0 size=N/A time=00:17:30.63 bitrate=N/A speed=7.92x    frame=25286 fps=190 q=-0.0 size=N/A time=00:17:34.63 bitrate=N/A speed=7.92x    frame=25385 fps=190 q=-0.0 size=N/A time=00:17:38.76 bitrate=N/A speed=7.92x    frame=25481 fps=190 q=-0.0 size=N/A time=00:17:42.77 bitrate=N/A speed=7.92x    frame=25582 fps=190 q=-0.0 size=N/A time=00:17:46.98 bitrate=N/A speed=7.92x    frame=25675 fps=190 q=-0.0 size=N/A time=00:17:50.86 bitrate=N/A speed=7.92x    frame=25767 fps=190 q=-0.0 size=N/A time=00:17:54.69 bitrate=N/A speed=7.92x    frame=25877 fps=190 q=-0.0 size=N/A time=00:17:59.28 bitrate=N/A speed=7.92x    frame=25982 fps=190 q=-0.0 size=N/A time=00:18:03.66 bitrate=N/A speed=7.93x    frame=26082 fps=190 q=-0.0 size=N/A time=00:18:07.87 bitrate=N/A speed=7.93x    frame=26182 fps=190 q=-0.0 size=N/A time=00:18:12.00 bitrate=N/A speed=7.93x    frame=26283 fps=190 q=-0.0 size=N/A time=00:18:16.22 bitrate=N/A speed=7.93x    frame=26381 fps=190 q=-0.0 size=N/A time=00:18:20.30 bitrate=N/A speed=7.93x    frame=26480 fps=190 q=-0.0 size=N/A time=00:18:24.43 bitrate=N/A speed=7.93x    frame=26582 fps=190 q=-0.0 size=N/A time=00:18:28.69 bitrate=N/A speed=7.93x    frame=26681 fps=190 q=-0.0 size=N/A time=00:18:32.82 bitrate=N/A speed=7.93x    frame=26769 fps=190 q=-0.0 size=N/A time=00:18:36.49 bitrate=N/A speed=7.93x    frame=26880 fps=190 q=-0.0 size=N/A time=00:18:41.12 bitrate=N/A speed=7.93x    frame=26974 fps=190 q=-0.0 size=N/A time=00:18:45.04 bitrate=N/A speed=7.93x    frame=27076 fps=190 q=-0.0 size=N/A time=00:18:49.29 bitrate=N/A speed=7.93x    frame=27178 fps=190 q=-0.0 size=N/A time=00:18:53.54 bitrate=N/A speed=7.93x    frame=27277 fps=190 q=-0.0 size=N/A time=00:18:57.67 bitrate=N/A speed=7.93x    frame=27377 fps=190 q=-0.0 size=N/A time=00:19:01.84 bitrate=N/A speed=7.93x    frame=27477 fps=190 q=-0.0 size=N/A time=00:19:06.01 bitrate=N/A speed=7.93x    frame=27577 fps=190 q=-0.0 size=N/A time=00:19:10.19 bitrate=N/A speed=7.93x    frame=27674 fps=190 q=-0.0 size=N/A time=00:19:14.23 bitrate=N/A speed=7.93x    frame=27764 fps=190 q=-0.0 size=N/A time=00:19:17.99 bitrate=N/A speed=7.93x    frame=27851 fps=190 q=-0.0 size=N/A time=00:19:21.61 bitrate=N/A speed=7.93x    frame=27956 fps=190 q=-0.0 size=N/A time=00:19:25.99 bitrate=N/A speed=7.93x    frame=28051 fps=190 q=-0.0 size=N/A time=00:19:29.96 bitrate=N/A speed=7.93x    frame=28155 fps=190 q=-0.0 size=N/A time=00:19:34.29 bitrate=N/A speed=7.93x    frame=28253 fps=190 q=-0.0 size=N/A time=00:19:38.38 bitrate=N/A speed=7.93x    frame=28348 fps=190 q=-0.0 size=N/A time=00:19:42.34 bitrate=N/A speed=7.93x    frame=28438 fps=190 q=-0.0 size=N/A time=00:19:46.10 bitrate=N/A speed=7.93x    frame=28539 fps=190 q=-0.0 size=N/A time=00:19:50.31 bitrate=N/A speed=7.93x    frame=28644 fps=190 q=-0.0 size=N/A time=00:19:54.69 bitrate=N/A speed=7.93x    frame=28743 fps=190 q=-0.0 size=N/A time=00:19:58.82 bitrate=N/A speed=7.93x    frame=28844 fps=190 q=-0.0 size=N/A time=00:20:03.03 bitrate=N/A speed=7.93x    frame=28934 fps=190 q=-0.0 size=N/A time=00:20:06.78 bitrate=N/A speed=7.93x    frame=29030 fps=190 q=-0.0 size=N/A time=00:20:10.79 bitrate=N/A speed=7.93x    frame=29130 fps=190 q=-0.0 size=N/A time=00:20:14.96 bitrate=N/A speed=7.93x    frame=29228 fps=190 q=-0.0 size=N/A time=00:20:19.05 bitrate=N/A speed=7.93x    frame=29324 fps=190 q=-0.0 size=N/A time=00:20:23.05 bitrate=N/A speed=7.93x    frame=29416 fps=190 q=-0.0 size=N/A time=00:20:26.89 bitrate=N/A speed=7.93x    frame=29517 fps=190 q=-0.0 size=N/A time=00:20:31.10 bitrate=N/A speed=7.93x    frame=29625 fps=190 q=-0.0 size=N/A time=00:20:35.60 bitrate=N/A speed=7.93x    frame=29724 fps=190 q=-0.0 size=N/A time=00:20:39.73 bitrate=N/A speed=7.93x    frame=29823 fps=190 q=-0.0 size=N/A time=00:20:43.86 bitrate=N/A speed=7.93x    frame=29925 fps=190 q=-0.0 size=N/A time=00:20:48.12 bitrate=N/A speed=7.93x    frame=30022 fps=190 q=-0.0 size=N/A time=00:20:52.16 bitrate=N/A speed=7.93x    frame=30120 fps=190 q=-0.0 size=N/A time=00:20:56.25 bitrate=N/A speed=7.93x    frame=30216 fps=190 q=-0.0 size=N/A time=00:21:00.25 bitrate=N/A speed=7.93x    frame=30314 fps=190 q=-0.0 size=N/A time=00:21:04.34 bitrate=N/A speed=7.93x    frame=30415 fps=190 q=-0.0 size=N/A time=00:21:08.55 bitrate=N/A speed=7.93x    frame=30506 fps=190 q=-0.0 size=N/A time=00:21:12.35 bitrate=N/A speed=7.93x    frame=30613 fps=190 q=-0.0 size=N/A time=00:21:16.81 bitrate=N/A speed=7.93x    frame=30710 fps=190 q=-0.0 size=N/A time=00:21:20.86 bitrate=N/A speed=7.93x    frame=30809 fps=190 q=-0.0 size=N/A time=00:21:24.99 bitrate=N/A speed=7.93x    frame=30911 fps=190 q=-0.0 size=N/A time=00:21:29.24 bitrate=N/A speed=7.93x    frame=31010 fps=190 q=-0.0 size=N/A time=00:21:33.37 bitrate=N/A speed=7.93x    frame=31105 fps=190 q=-0.0 size=N/A time=00:21:37.33 bitrate=N/A speed=7.93x    frame=31203 fps=190 q=-0.0 size=N/A time=00:21:41.42 bitrate=N/A speed=7.93x    frame=31304 fps=190 q=-0.0 size=N/A time=00:21:45.63 bitrate=N/A speed=7.93x    frame=31403 fps=190 q=-0.0 size=N/A time=00:21:49.76 bitrate=N/A speed=7.93x    frame=31500 fps=190 q=-0.0 size=N/A time=00:21:53.81 bitrate=N/A speed=7.93x    frame=31598 fps=190 q=-0.0 size=N/A time=00:21:57.89 bitrate=N/A speed=7.93x    frame=31697 fps=190 q=-0.0 size=N/A time=00:22:02.02 bitrate=N/A speed=7.93x    frame=31786 fps=190 q=-0.0 size=N/A time=00:22:05.74 bitrate=N/A speed=7.93x    frame=31898 fps=190 q=-0.0 size=N/A time=00:22:10.41 bitrate=N/A speed=7.93x    frame=31995 fps=190 q=-0.0 size=N/A time=00:22:14.45 bitrate=N/A speed=7.93x    frame=32091 fps=190 q=-0.0 size=N/A time=00:22:18.46 bitrate=N/A speed=7.93x    frame=32185 fps=190 q=-0.0 size=N/A time=00:22:22.38 bitrate=N/A speed=7.93x    frame=32286 fps=190 q=-0.0 size=N/A time=00:22:26.59 bitrate=N/A speed=7.93x    frame=32382 fps=190 q=-0.0 size=N/A time=00:22:30.59 bitrate=N/A speed=7.93x    frame=32479 fps=190 q=-0.0 size=N/A time=00:22:34.64 bitrate=N/A speed=7.93x    frame=32580 fps=190 q=-0.0 size=N/A time=00:22:38.85 bitrate=N/A speed=7.93x    frame=32676 fps=190 q=-0.0 size=N/A time=00:22:42.86 bitrate=N/A speed=7.93x    frame=32775 fps=190 q=-0.0 size=N/A time=00:22:46.99 bitrate=N/A speed=7.93x    frame=32874 fps=190 q=-0.0 size=N/A time=00:22:51.11 bitrate=N/A speed=7.93x    frame=32971 fps=190 q=-0.0 size=N/A time=00:22:55.16 bitrate=N/A speed=7.93x    frame=33067 fps=190 q=-0.0 size=N/A time=00:22:59.16 bitrate=N/A speed=7.93x    frame=33159 fps=190 q=-0.0 size=N/A time=00:23:03.00 bitrate=N/A speed=7.93x    frame=33264 fps=190 q=-0.0 size=N/A time=00:23:07.38 bitrate=N/A speed=7.93x    frame=33361 fps=190 q=-0.0 size=N/A time=00:23:11.43 bitrate=N/A speed=7.93x    frame=33461 fps=190 q=-0.0 size=N/A time=00:23:15.60 bitrate=N/A speed=7.93x    frame=33550 fps=190 q=-0.0 size=N/A time=00:23:19.31 bitrate=N/A speed=7.93x    frame=33661 fps=190 q=-0.0 size=N/A time=00:23:23.94 bitrate=N/A speed=7.93x    frame=33759 fps=190 q=-0.0 size=N/A time=00:23:28.03 bitrate=N/A speed=7.93x    frame=33846 fps=190 q=-0.0 size=N/A time=00:23:31.66 bitrate=N/A speed=7.93x    frame=33956 fps=190 q=-0.0 size=N/A time=00:23:36.24 bitrate=N/A speed=7.93x    [Parsed_psnr_10 @ 0000027e34c37cc0] PSNR y:45.439297 u:51.062661 v:50.290051 average:46.592071 min:36.722980 max:inf
[out#0/null @ 0000027e3224c100] video:14629KiB audio:266260KiB subtitle:0KiB other streams:0KiB global headers:0KiB muxing overhead: unknown
frame=34046 fps=190 q=-0.0 Lsize=N/A time=00:23:40.00 bitrate=N/A speed=7.93x    
